<?xml version="1.0" standalone="no"?>
<!DOCTYPE svg PUBLIC "-//W3C//DTD SVG 20010904//EN"
 "http://www.w3.org/TR/2001/REC-SVG-20010904/DTD/svg10.dtd">
<svg version="1.0" xmlns="http://www.w3.org/2000/svg"
 width="512.000000pt" height="512.000000pt" viewBox="0 0 512.000000 512.000000"
 preserveAspectRatio="xMidYMid meet">
<metadata>
Created by potrace 1.14, written by Peter Selinger 2001-2017
</metadata>
<g transform="translate(0.000000,512.000000) scale(0.100000,-0.100000)"
fill="#000000" stroke="none">
<path d="M2338 4605 c-2 -2 -67 -6 -144 -9 -78 -4 -152 -9 -165 -11 -13 -2
-57 -6 -97 -10 -71 -5 -88 -7 -177 -20 -22 -3 -71 -10 -109 -16 -139 -19 -384
-75 -501 -114 -262 -87 -416 -182 -449 -280 -10 -29 -13 -222 -11 -898 1 -768
3 -870 19 -937 74 -332 288 -728 555 -1029 335 -378 740 -631 1194 -747 102
-26 124 -25 223 2 28 8 60 16 70 19 57 12 237 81 344 133 120 57 381 217 410
251 3 3 28 24 55 46 315 250 626 671 777 1050 29 73 76 228 83 272 3 21 8 50
12 63 3 14 7 411 8 882 2 685 -1 864 -11 895 -27 77 -138 158 -317 229 -76 31
-245 85 -307 99 -8 2 -44 10 -80 18 -36 8 -81 18 -100 21 -41 7 -77 13 -145
26 -27 5 -90 14 -140 20 -49 5 -107 12 -128 15 -21 2 -77 7 -125 11 -48 3
-112 8 -142 10 -62 5 -598 13 -602 9z m587 -349 c102 -6 141 -9 250 -21 83 -8
203 -24 240 -31 11 -3 36 -7 55 -10 19 -3 69 -12 110 -20 41 -9 85 -18 96 -20
96 -18 358 -109 399 -138 20 -14 20 -24 19 -777 0 -420 -4 -784 -8 -809 -35
-205 -176 -514 -339 -745 -201 -285 -504 -541 -806 -682 -71 -33 -195 -83
-206 -83 -3 0 -5 101 -5 225 l0 225 -170 0 -170 0 0 -226 0 -225 -22 6 c-49
15 -216 89 -278 123 -281 154 -502 350 -718 637 -146 193 -311 562 -339 755
-4 25 -7 387 -7 805 l-1 760 55 28 c101 50 351 124 515 152 11 2 48 9 82 15
34 6 79 13 100 15 21 2 52 6 68 9 17 2 64 8 105 12 41 3 89 8 105 10 17 2 82
6 145 9 63 4 116 8 117 9 5 5 505 -2 608 -8z"/>
<path d="M1777 3755 c-1 -2 -24 -5 -52 -8 -198 -21 -416 -148 -506 -297 l-19
-30 84 45 c80 44 199 90 261 101 201 37 286 17 421 -99 15 -12 49 -56 77 -97
58 -86 78 -104 127 -119 140 -42 261 99 201 234 -74 166 -248 258 -509 268
-45 2 -83 3 -85 2z"/>
<path d="M3180 3748 c-107 -12 -154 -25 -240 -68 -83 -42 -145 -102 -181 -176
-27 -54 -31 -71 -25 -111 15 -111 132 -178 236 -135 33 14 62 45 106 112 59
91 148 164 238 197 42 15 151 19 221 8 77 -13 201 -57 293 -106 91 -47 93 -47
75 -20 -95 147 -300 271 -492 297 -65 9 -165 10 -231 2z"/>
<path d="M1725 3238 c-120 -12 -240 -61 -321 -132 l-39 -35 39 -34 c137 -120
390 -168 576 -108 97 30 230 115 230 146 0 16 -87 78 -151 108 -101 48 -218
67 -334 55z"/>
<path d="M3260 3238 c-122 -14 -263 -74 -341 -147 -20 -18 -19 -19 15 -49 171
-150 453 -182 671 -77 49 24 69 37 123 83 l27 23 -43 39 c-45 41 -141 91 -207
109 -69 18 -178 27 -245 19z"/>
<path d="M2428 2328 c-68 -90 -144 -189 -169 -220 l-44 -58 -130 0 -130 0
-144 170 c-142 170 -143 170 -165 153 -65 -52 -236 -199 -236 -203 0 -4 124
-153 233 -280 12 -14 52 -61 89 -105 l67 -80 291 1 c180 0 294 4 298 10 13 20
106 139 112 144 3 3 16 20 29 38 12 17 26 32 30 32 4 0 35 -38 69 -85 35 -46
75 -97 90 -112 l27 -28 288 1 c234 1 291 4 301 15 15 16 345 406 364 431 12
15 12 20 0 30 -15 15 -205 177 -229 196 -15 11 -32 -6 -140 -134 -68 -80 -132
-157 -142 -170 -18 -23 -23 -24 -152 -24 l-133 0 -166 220 c-92 121 -171 220
-175 220 -5 0 -65 -73 -133 -162z"/>
</g>
</svg>
